<?xml version="1.0" encoding="utf-8"?>
<!-- Generator: Adobe Illustrator 15.0.0, SVG Export Plug-In . SVG Version: 6.00 Build 0)  -->
<!DOCTYPE svg PUBLIC "-//W3C//DTD SVG 1.1//EN" "http://www.w3.org/Graphics/SVG/1.1/DTD/svg11.dtd">
<svg version="1.1" id="レイヤー_1" xmlns="http://www.w3.org/2000/svg" xmlns:xlink="http://www.w3.org/1999/xlink" x="0px"
	 y="0px" width="96px" height="96px" viewBox="0 0 96 96" enable-background="new 0 0 96 96" xml:space="preserve">
<g id="cup-logo">
	<defs>
		<rect id="SVGID_1_" width="96" height="96"/>
	</defs>
	<clipPath id="SVGID_2_">
		<use xlink:href="#SVGID_1_"  overflow="visible"/>
	</clipPath>
	<path clip-path="url(#SVGID_2_)" fill="#DF866F" d="M41.9,77c-1.6,0-3.1-0.1-4.7-0.4c-15.8-2.5-26.6-17.5-24-33.3
		c1.1-6.8,4.6-13.1,9.9-17.5C28.4,21.4,35,19,41.8,19c1.6,0,3.1,0.1,4.7,0.4c7.7,1.2,14.4,5.4,18.9,11.7c4.5,6.3,6.4,14,5.1,21.6
		c-1.1,6.8-4.6,13.1-9.9,17.5C55.4,74.6,48.7,77,41.9,77L41.9,77z M48.2,34.5c-3.8,0-7.3,1.1-12.2,6.2C29.6,48,30,59,30,59.1
		c0,0.1,0.1,0.2,0.2,0.2c0,0,1,0.1,2.6,0.1c3.7,0,10.6-0.7,15.9-5.1c6-5,7.4-10.2,7.5-14.2l0-0.4c0-0.1,0-0.1-0.1-0.2
		c0,0-0.1-0.1-0.2-0.1l-7.3,2.9l2.6-7.5c0-0.1-0.1-0.2-0.2-0.2C50,34.5,49.1,34.5,48.2,34.5"/>
	<path clip-path="url(#SVGID_2_)" fill="#DF866F" d="M94.2,58.2c-1.5-1.4-4.2-2.7-9-4.1L84.8,54c-0.4-0.1-1.1-0.3-1.9-0.5
		c1.2-8.6-0.4-17.4-4.6-25.2c-5.3-9.7-14-16.9-24.6-20c-3.9-1.2-7.9-1.8-11.9-1.8C23.7,6.5,7.4,18.7,2.1,36.1
		C-4.4,58,8.1,81.2,30,87.7c3.9,1.2,7.9,1.8,11.9,1.8c16.5,0,31.5-10,38-24.9c0.6,0.2,1.3,0.4,2,0.6c3.5,1,6.3,1.7,8.5,1.7
		c1.4,0,2.6-0.3,3.5-1.1c0.9-0.8,1.2-1.8,1.4-2.5C95.6,62.3,96.2,60.2,94.2,58.2z M41.9,85.5c-3.6,0-7.3-0.5-10.8-1.6
		C11.3,78,0,57,6,37.3c4.7-15.7,19.5-26.7,35.9-26.7c3.6,0,7.3,0.5,10.8,1.6c9.6,2.9,17.5,9.3,22.2,18.1c4.7,8.8,5.8,18.9,2.9,28.5
		C73,74.5,58.3,85.5,41.9,85.5z M91.5,62.1c-0.1,0.2-0.2,0.6-0.2,0.7c-1,0.6-6.1-0.8-8.3-1.5c-0.6-0.2-1.1-0.3-1.7-0.5
		c0.1-0.3,0.2-0.6,0.3-0.9c0.2-0.8,0.5-1.6,0.6-2.5c0.6,0.2,1.1,0.3,1.4,0.4L84,58c5,1.5,6.8,2.5,7.4,3.2
		C91.7,61.4,91.7,61.4,91.5,62.1z"/>
</g>
</svg>
