<?xml version="1.0" encoding="UTF-8"?>
<svg xmlns="http://www.w3.org/2000/svg" version="1.1" viewBox="0 0 627 530.088">
  <!-- Generator: Adobe Illustrator 30.3.0, SVG Export Plug-In . SVG Version: 2.1.3 Build 182)  -->
  <g id="_部屋" data-name="部屋">
    <g id="_壁" data-name="壁">
      <line x1="151" x2="151" y2="245" fill="none" stroke="#658c81" stroke-miterlimit="10" stroke-width="2"/>
      <line x1="366" y1="1.418" x2="366" y2="41.418" fill="none" stroke="#658c81" stroke-miterlimit="10" stroke-width="2"/>
      <line x1="366" y1="261.417" x2="366" y2="315.273" fill="none" stroke="#658c81" stroke-miterlimit="10" stroke-width="2"/>
      <line x1="366" y1="301.417" x2="496" y2="301.417" fill="none" stroke="#658c81" stroke-miterlimit="10" stroke-width="2"/>
      <line x1="121" y1="446.417" x2="195.521" y2="446.417" fill="none" stroke="#658c81" stroke-miterlimit="10" stroke-width="2"/>
      <polyline points="305.337 446.417 626 446.417 626 1.418 1 1.418 1 380.273 1 446.417 41 446.417" fill="none" stroke="#658c81" stroke-miterlimit="10" stroke-width="2"/>
    </g>
    <g id="_引き戸_xFF12_" data-name="引き戸_xFF12_">
      <rect x="496" y="296" width="6.25" height="10" pointer-events="all" fill="none" stroke="#658c81" stroke-miterlimit="10"/>
      <rect x="619.75" y="296" width="6.25" height="10" pointer-events="all" fill="none" stroke="#658c81" stroke-miterlimit="10"/>
      <rect x="502.25" y="301" width="58.75" height="5" pointer-events="all" fill="none" stroke="#658c81" stroke-miterlimit="10"/>
      <rect x="528.5" y="296" width="65" height="5" pointer-events="all" fill="none" stroke="#658c81" stroke-miterlimit="10"/>
    </g>
    <g id="_引き戸_xFF11_" data-name="引き戸_xFF11_">
      <rect x="361" y="315.715" width="10" height="6.25" pointer-events="all" fill="none" stroke="#658c81" stroke-miterlimit="10"/>
      <rect x="361" y="439.465" width="10" height="6.25" pointer-events="all" fill="none" stroke="#658c81" stroke-miterlimit="10"/>
      <rect x="361" y="321.965" width="5" height="58.75" pointer-events="all" fill="none" stroke="#658c81" stroke-miterlimit="10"/>
      <rect x="366" y="348.215" width="5" height="65" pointer-events="all" fill="none" stroke="#658c81" stroke-miterlimit="10"/>
    </g>
    <g id="_窓" data-name="窓">
      <g>
        <rect x="361" y="41" width="10" height="220" pointer-events="all" fill="none" stroke="#658c81" stroke-miterlimit="10"/>
        <path d="M366,41v220" pointer-events="all" fill="none" stroke="#658c81" stroke-miterlimit="10"/>
      </g>
    </g>
    <polygon id="_出窓" data-name="出窓" points="205.184 462.736 295.675 462.736 305.337 446 195.521 446 205.184 462.736" fill="none" stroke="#658c81" stroke-linejoin="round"/>
    <g id="_ドア" data-name="ドア">
      <g>
        <rect x="41.5" y="444.588" width="80" height="5" pointer-events="all" fill="none" stroke="#658c81" stroke-miterlimit="10"/>
        <path d="M121.5,449.588c0,44.18-35.82,80-80,80v-80" pointer-events="all" fill="none" stroke="#658c81" stroke-miterlimit="10"/>
      </g>
    </g>
    <path d="M272.107,79.25" fill="none" stroke="#658c81" stroke-miterlimit="10"/>
  </g>
  <g id="_レイヤー_2" data-name="レイヤー_2">
    <g>
      <path d="M494.635,117.374c2.093,0,4.22.281,6.251.81,5.564-6.251,15.725-8.876,20.068-7.062,4.376,1.812-1.313,19.856-1.313,19.856,1.782,3.344,3.127,9.025,3.127,12.778,0,13.941-12.599,23.632-28.133,23.632s-28.134-9.379-28.134-23.632c0-3.908,1.563-9.528,3.125-12.778,0,0-5.906-18.044-1.562-19.856,4.345-1.814,14.753.718,20.316,6.971,2.051-.473,4.149-.715,6.254-.719Z" fill="none" stroke="#658c81" stroke-linecap="round" stroke-linejoin="round" stroke-width="2"/>
      <path id="_鼻" data-name="鼻" d="M492.289,153.193c.31-1.13,4.239-1.083,4.688,0,.317.767-1.515,2.349-2.343,2.346-.83-.003-2.564-1.546-2.346-2.346Z" fill="none" stroke="#658c81" stroke-linecap="round" stroke-linejoin="round" stroke-width="2"/>
      <g id="_目" data-name="目">
        <path d="M511.527,145.526c0,1.162-.541,2.103-1.21,2.103s-1.21-.941-1.21-2.103.543-2.104,1.21-2.104,1.21.943,1.21,2.104Z" fill="none" stroke="#658c81" stroke-linecap="round" stroke-linejoin="round" stroke-width="2.5"/>
        <path d="M477.719,145.526c0,1.162.541,2.103,1.21,2.103s1.209-.941,1.209-2.103-.542-2.104-1.209-2.104-1.21.943-1.21,2.104Z" fill="none" stroke="#658c81" stroke-linecap="round" stroke-linejoin="round" stroke-width="2.5"/>
      </g>
    </g>
    <g>
      <path d="M228.878,123.036h48.173c0,14.832-6.313,28.406-24.087,28.406-16.922,0-24.086-13.574-24.086-28.406ZM228.878,123.036h48.173M273.155,140.453c4.386,1.043,11.059.257,12.902-5.301,2.02-6.09-4.996-9.063-9.213-7.674" fill="none" stroke="#658c81" stroke-linejoin="round" stroke-width="2"/>
      <line x1="221.615" y1="154.899" x2="284.314" y2="154.899" fill="none" stroke="#658c81" stroke-linecap="round" stroke-miterlimit="10" stroke-width="2"/>
    </g>
    <g>
      <g id="_ガスコンロ" data-name="ガスコンロ">
        <line x1="51.321" y1="169.041" x2="100.426" y2="169.041" fill="none" stroke="#658c81" stroke-linecap="round" stroke-miterlimit="10" stroke-width="2"/>
        <g id="_火" data-name="火">
          <path d="M64.078,163.599c.439,2.487-.845,3.385-2.569,3.689-1.724.304-3.237-.101-3.675-2.588-.438-2.488,2.136-6.148,2.136-6.148,0,0,3.67,2.559,4.108,5.047Z" fill="none" stroke="#658c81" stroke-linecap="round" stroke-miterlimit="10" stroke-width="2"/>
          <path d="M71.54,163.892c.22,2.518-1.106,3.297-2.813,3.446-1.707.15-3.149-.388-3.368-2.905-.22-2.516,2.596-5.931,2.596-5.931,0,0,3.366,2.874,3.586,5.39Z" fill="none" stroke="#658c81" stroke-linecap="round" stroke-miterlimit="10" stroke-width="2"/>
          <path d="M78.976,164.168c0,2.526-1.388,3.188-3.103,3.188s-3.101-.662-3.101-3.188,3.101-5.682,3.101-5.682c0,0,3.103,3.157,3.103,5.682Z" fill="none" stroke="#658c81" stroke-linecap="round" stroke-miterlimit="10" stroke-width="2"/>
          <path d="M86.389,164.434c-.22,2.517-1.662,3.055-3.368,2.905-1.707-.149-3.034-.929-2.813-3.446.22-2.516,3.586-5.39,3.586-5.39,0,0,2.816,3.415,2.596,5.931Z" fill="none" stroke="#658c81" stroke-linecap="round" stroke-miterlimit="10" stroke-width="2"/>
          <path d="M93.78,164.688c-.439,2.487-1.922,2.897-3.609,2.601-1.688-.297-2.94-1.19-2.502-3.679.438-2.487,4.042-5.058,4.042-5.058,0,0,2.507,3.647,2.069,6.136Z" fill="none" stroke="#658c81" stroke-linecap="round" stroke-miterlimit="10" stroke-width="2"/>
        </g>
      </g>
      <g id="_やかん" data-name="やかん">
        <path d="M101.776,155.605h-51.805c0-15.95,6.789-32.45,25.903-32.45,18.198,0,25.902,16.5,25.902,32.45Z" fill="none" stroke="#658c81" stroke-linejoin="round" stroke-width="2"/>
        <polyline points="96.383 134.491 100.426 130.341 104.746 131.703 99.805 142.094" fill="none" stroke="#658c81" stroke-linejoin="round" stroke-width="2"/>
        <path d="M95.497,123.154c0-7.875-8.785-14.26-19.622-14.26s-19.622,6.385-19.622,14.26c0,2.44,1.964,6.931,1.964,6.931l34.777.043s2.503-4.441,2.503-6.974Z" fill="none" stroke="#658c81" stroke-linejoin="round" stroke-width="2"/>
      </g>
    </g>
    <g id="OL:キッチン">
      <path d="M38.413,230.741c-.406.042-.768-.06-1.088-.305-.32-.245-.512-.57-.576-.976-.128-.938-.262-1.888-.4-2.848-.139-.961-.261-1.846-.368-2.656-.107-.811-.235-1.707-.384-2.688l-9.504,1.12c-.405.043-.763-.059-1.072-.304-.31-.245-.486-.561-.528-.944-.043-.405.059-.763.304-1.072.245-.309.57-.484.976-.527l9.408-1.12-.576-4.192c-1.323.149-2.48.277-3.472.385-.992.106-2,.224-3.024.352-.406.043-.763-.064-1.072-.32-.31-.256-.486-.576-.528-.96-.021-.404.091-.763.336-1.071.245-.31.56-.475.944-.496,1.002-.128,1.994-.245,2.976-.353.981-.106,2.123-.234,3.424-.384-.149-1.088-.278-2.026-.384-2.815-.107-.79-.181-1.345-.224-1.665-.043-.405.058-.768.304-1.088.245-.32.571-.512.976-.576.405-.042.773.059,1.104.304.331.245.517.571.56.976.042.32.117.88.224,1.68.106.8.234,1.743.384,2.831,1.451-.17,2.763-.319,3.936-.447,1.173-.128,1.941-.203,2.304-.225.405-.042.762.064,1.072.32.309.256.475.576.496.96.042.405-.064.758-.32,1.056-.256.3-.576.47-.96.513-.363.021-1.12.096-2.272.224-1.152.128-2.432.277-3.84.448l.576,4.191,8.864-1.056c.405-.042.763.06,1.072.304.309.246.474.561.496.944.043.405-.059.763-.304,1.072-.246.31-.56.485-.944.527l-8.768,1.057c.149.981.277,1.872.384,2.672.106.8.229,1.68.368,2.64.138.96.272,1.91.4,2.849.064.405-.027.768-.272,1.088-.246.319-.582.512-1.008.576Z" fill="#658c81"/>
      <path d="M57.708,221.429c-.32.149-.646.155-.976.016-.331-.138-.571-.367-.72-.688-.32-.683-.667-1.37-1.04-2.064-.374-.692-.742-1.296-1.104-1.808-.214-.299-.288-.624-.224-.976.064-.353.234-.635.512-.849.299-.213.624-.293.976-.24.352.054.635.23.848.528.277.384.565.843.864,1.376s.587,1.062.864,1.584c.277.523.501.987.672,1.393.17.341.187.677.048,1.008-.139.331-.379.571-.72.72ZM58.349,230.549c-.32.149-.646.165-.976.048-.331-.117-.582-.336-.752-.656-.149-.341-.166-.683-.048-1.023s.336-.587.656-.736c2.176-1.045,3.973-2.213,5.392-3.504,1.418-1.29,2.544-2.763,3.376-4.416s1.429-3.557,1.792-5.712c.064-.362.245-.646.544-.848.298-.203.619-.272.96-.208.362.063.645.239.848.527.202.288.272.614.208.977-.619,3.584-1.899,6.65-3.84,9.2-1.941,2.549-4.661,4.667-8.16,6.352ZM62.701,220.213c-.342.106-.672.08-.992-.08s-.544-.41-.672-.752c-.235-.661-.523-1.381-.864-2.16-.341-.778-.64-1.402-.896-1.872-.171-.32-.219-.656-.144-1.008s.272-.613.592-.784c.298-.191.629-.245.992-.16.363.086.629.288.8.608.213.384.448.859.704,1.424.256.565.501,1.126.736,1.68.234.556.426,1.035.576,1.44.106.342.08.672-.08.992-.16.319-.411.544-.752.672Z" fill="#658c81"/>
      <path d="M84.012,229.845c-.32.256-.683.353-1.088.288s-.726-.256-.96-.576c-.256-.341-.352-.714-.288-1.12.064-.404.256-.725.576-.96,1.493-1.108,2.747-2.501,3.76-4.176s1.733-3.482,2.16-5.424h-11.488c-.406,0-.747-.139-1.024-.416s-.416-.618-.416-1.024.139-.746.416-1.023.619-.416,1.024-.416h11.904c.042-.661.053-1.333.032-2.017-.021-.683-.085-1.354-.192-2.016-1.344.214-2.699.4-4.064.56-1.365.16-2.613.283-3.744.368-.405.021-.752-.111-1.04-.399-.288-.288-.443-.635-.464-1.04-.021-.427.112-.784.4-1.072.288-.288.634-.442,1.04-.463,1.109-.043,2.304-.128,3.584-.256,1.28-.129,2.56-.304,3.84-.528,1.28-.224,2.485-.469,3.616-.736s2.112-.549,2.944-.848c.384-.149.762-.139,1.136.032.373.171.635.448.784.832.149.384.133.763-.048,1.136-.182.373-.464.634-.848.784-.576.191-1.238.384-1.984.576-.747.191-1.536.373-2.368.544.213,1.536.277,3.051.192,4.544h9.792c.405,0,.747.139,1.024.416s.416.619.416,1.023-.139.747-.416,1.024-.619.416-1.024.416h-10.144c-.469,2.453-1.307,4.726-2.512,6.815-1.206,2.092-2.715,3.809-4.528,5.152Z" fill="#658c81"/>
      <path d="M112.076,215.732c-.512-.447-1.093-.917-1.744-1.407-.651-.491-1.302-.96-1.952-1.408-.651-.448-1.243-.832-1.776-1.152-.342-.213-.565-.517-.672-.912-.107-.395-.054-.763.16-1.104.213-.362.522-.598.928-.704.405-.106.778-.043,1.12.191.533.342,1.168.774,1.904,1.297s1.456,1.045,2.16,1.567c.704.523,1.269.955,1.696,1.296.32.256.506.587.56.992.053.405-.048.769-.304,1.088-.235.32-.56.513-.976.576-.416.064-.784-.042-1.104-.32ZM108.812,228.148c-.384.149-.758.14-1.12-.031-.363-.171-.619-.448-.768-.832-.149-.385-.133-.763.048-1.137.181-.373.464-.634.848-.783,1.749-.641,3.499-1.403,5.248-2.288,1.749-.886,3.429-1.846,5.04-2.88,1.61-1.035,3.072-2.107,4.384-3.217,1.312-1.108,2.405-2.196,3.28-3.264.256-.32.586-.496.992-.528.405-.031.768.08,1.088.336.32.257.501.587.544.992.042.405-.064.769-.32,1.088-.854,1.046-2.005,2.166-3.456,3.36-1.451,1.195-3.062,2.373-4.832,3.536-1.771,1.163-3.6,2.234-5.488,3.216-1.888.981-3.717,1.792-5.488,2.432Z" fill="#658c81"/>
    </g>
    <g id="OL:ティールーム">
      <path d="M178.138,229.586c-.363.192-.741.229-1.136.112-.395-.118-.688-.357-.88-.721-.171-.362-.198-.74-.08-1.136.117-.394.357-.687.72-.88,1.536-.81,2.896-1.803,4.08-2.976,1.184-1.174,2.144-2.47,2.88-3.889.736-1.418,1.189-2.874,1.36-4.368h-9.824c-.405,0-.747-.138-1.024-.416-.277-.276-.416-.618-.416-1.024s.139-.747.416-1.024c.277-.276.619-.416,1.024-.416h21.216c.405,0,.747.14,1.024.416.277.277.416.619.416,1.024s-.139.747-.416,1.024c-.278.278-.619.416-1.024.416h-8.512c-.171,1.856-.683,3.659-1.536,5.408-.853,1.75-1.984,3.35-3.392,4.8-1.408,1.451-3.04,2.667-4.896,3.648ZM179.002,209.17c-.384,0-.72-.139-1.008-.416-.288-.277-.432-.618-.432-1.024,0-.384.144-.72.432-1.008.288-.288.624-.432,1.008-.432h14.08c.384,0,.72.144,1.008.432.288.288.432.624.432,1.008,0,.406-.144.747-.432,1.024s-.624.416-1.008.416h-14.08Z" fill="#658c81"/>
      <path d="M210.971,230.962c-.342,0-.645-.134-.912-.4-.267-.267-.4-.57-.4-.911v-9.921c-1.046.939-2.139,1.841-3.28,2.704-1.142.864-2.277,1.638-3.408,2.32-.299.192-.624.245-.976.16-.352-.085-.624-.288-.816-.608-.192-.298-.246-.624-.16-.976.085-.353.288-.624.608-.816,1.579-.917,3.083-1.946,4.512-3.088,1.429-1.141,2.746-2.341,3.952-3.6,1.205-1.259,2.235-2.507,3.088-3.744.213-.299.496-.485.848-.56.352-.074.677-.005.976.208.298.214.48.496.544.849.064.352-.011.678-.224.976-.384.556-.832,1.142-1.344,1.76-.512.619-1.078,1.248-1.696,1.889v12.448c0,.341-.128.644-.384.911-.256.267-.565.4-.928.4Z" fill="#658c81"/>
      <path d="M223.93,218.706c-.405,0-.752-.145-1.04-.433-.288-.287-.432-.634-.432-1.039,0-.427.144-.779.432-1.057.288-.276.635-.416,1.04-.416h19.936c.405,0,.752.14,1.04.416.288.277.432.63.432,1.057,0,.405-.144.752-.432,1.039-.288.288-.635.433-1.04.433h-19.936Z" fill="#658c81"/>
      <path d="M252.218,226.61c-.363.171-.736.181-1.12.031-.384-.148-.662-.404-.832-.768-.149-.384-.149-.768,0-1.152.149-.384.405-.65.768-.8,1.877-.832,3.338-1.872,4.384-3.12,1.045-1.248,1.781-2.629,2.208-4.144.427-1.515.64-3.083.64-4.704,0-.405.149-.752.448-1.04.298-.288.65-.433,1.056-.433s.752.145,1.04.433c.288.288.432.635.432,1.04,0,2.24-.363,4.319-1.088,6.24-.726,1.92-1.76,3.595-3.104,5.023-1.344,1.43-2.955,2.56-4.832,3.393ZM272.954,224.69c-1.643.598-3.109.853-4.4.768-1.291-.085-2.299-.565-3.024-1.44-.726-.874-1.088-2.196-1.088-3.968v-9.824c0-.426.144-.783.432-1.071.288-.288.635-.433,1.04-.433.427,0,.784.144,1.072.433s.432.645.432,1.071v9.824c0,1.131.363,1.867,1.088,2.208.725.342,1.856.224,3.392-.352,1.173-.427,2.336-.896,3.488-1.408,1.152-.512,2.154-.992,3.008-1.44.363-.191.741-.224,1.136-.096.394.128.688.373.88.736.17.341.197.709.08,1.104-.118.395-.357.688-.72.88-1.003.534-2.107,1.062-3.312,1.584-1.205.523-2.374.998-3.504,1.424Z" fill="#658c81"/>
      <path d="M286.65,218.706c-.405,0-.752-.145-1.04-.433-.288-.287-.432-.634-.432-1.039,0-.427.144-.779.432-1.057.288-.276.635-.416,1.04-.416h19.936c.405,0,.752.14,1.04.416.288.277.432.63.432,1.057,0,.405-.144.752-.432,1.039-.288.288-.635.433-1.04.433h-19.936Z" fill="#658c81"/>
      <path d="M333.339,227.506c-.342.192-.71.224-1.104.096-.395-.128-.687-.362-.88-.704-.214-.384-.518-.863-.912-1.44-.394-.576-.838-1.194-1.328-1.856-1.237.214-2.64.433-4.208.656-1.567.224-3.184.437-4.848.64-1.664.203-3.286.385-4.864.545-1.579.159-3.008.293-4.288.399-.406.021-.763-.101-1.072-.368-.31-.267-.475-.602-.496-1.008-.022-.427.101-.789.368-1.088.267-.299.602-.459,1.008-.48.362-.042.757-.079,1.183-.111.427-.032.875-.069,1.344-.112.704-.96,1.424-2.048,2.16-3.264.736-1.216,1.445-2.475,2.128-3.776.683-1.301,1.312-2.564,1.888-3.792.576-1.227,1.057-2.32,1.44-3.28.149-.384.41-.66.784-.832.373-.17.752-.17,1.136,0,.384.15.661.411.832.784.171.374.171.752,0,1.137-.491,1.194-1.099,2.522-1.824,3.983-.726,1.462-1.519,2.949-2.384,4.464-.864,1.516-1.733,2.933-2.608,4.256,1.771-.17,3.573-.356,5.408-.56,1.835-.202,3.499-.41,4.992-.624-.533-.683-1.072-1.328-1.616-1.935-.544-.608-1.029-1.125-1.456-1.553-.277-.298-.411-.655-.399-1.071.01-.416.165-.763.464-1.04.299-.277.65-.411,1.056-.4.405.011.747.165,1.024.464.49.512,1.093,1.195,1.808,2.048.715.854,1.461,1.771,2.24,2.752.778.981,1.493,1.92,2.144,2.816.651.896,1.146,1.643,1.488,2.24.213.341.256.709.128,1.103-.128.396-.373.699-.735.912Z" fill="#658c81"/>
    </g>
    <g id="OL:猫広場">
      <path d="M450.518,231.41c-.471.042-.859-.038-1.168-.24-.31-.203-.496-.507-.56-.912-.086-.427-.016-.806.208-1.136.224-.331.549-.507.976-.528.918-.063,1.658-.256,2.225-.576.564-.319.976-.912,1.232-1.775.256-.864.383-2.128.383-3.792,0-.811-.016-1.595-.047-2.352-.033-.757-.092-1.466-.177-2.128-.575.896-1.205,1.798-1.888,2.704-.684.907-1.365,1.701-2.049,2.384-.277.299-.607.476-.991.528-.384.054-.735-.059-1.056-.336-.299-.234-.459-.533-.48-.896-.022-.362.106-.682.385-.96.639-.66,1.301-1.418,1.983-2.271.683-.853,1.328-1.723,1.936-2.608.607-.885,1.103-1.69,1.487-2.416-.149-.555-.31-1.071-.48-1.552-.172-.479-.352-.954-.545-1.424-.875.895-1.728,1.685-2.56,2.368-.277.256-.608.39-.992.399-.384.012-.715-.122-.991-.399-.277-.277-.406-.608-.385-.992.021-.384.171-.683.448-.896.533-.404,1.066-.863,1.601-1.376.532-.512,1.055-1.034,1.567-1.567-.341-.598-.72-1.173-1.136-1.728-.416-.554-.859-1.098-1.328-1.632-.235-.277-.314-.581-.24-.912.074-.33.25-.602.528-.816.298-.213.618-.298.96-.256.341.043.629.203.863.48.406.448.785.901,1.137,1.36.352.459.687.934,1.008,1.424.426-.533.826-1.061,1.2-1.584.373-.523.698-1.018.976-1.488.213-.362.496-.597.848-.704.353-.106.699-.064,1.041.128.34.214.555.491.64.832.085.342.032.672-.16.992-.405.683-.875,1.387-1.407,2.112-.534.726-1.1,1.44-1.697,2.144.918,1.813,1.596,3.809,2.033,5.984.436,2.176.655,4.661.655,7.456,0,2.325-.23,4.117-.689,5.376-.459,1.259-1.131,2.143-2.016,2.655-.885.513-1.978.821-3.279.929ZM462.9,213.394c-.383,0-.715-.116-.991-.352-.278-.234-.416-.565-.416-.992v-2.56h-3.968c-.385,0-.693-.128-.928-.385-.236-.256-.353-.554-.353-.896,0-.362.116-.661.353-.896.234-.234.543-.352.928-.352h3.968v-3.104c0-.448.138-.789.416-1.024.276-.234.608-.352.991-.352.363,0,.684.118.961.352.277.235.416.576.416,1.024v3.104h4.256v-3.104c0-.448.139-.789.416-1.024.277-.234.597-.352.96-.352.384,0,.709.118.976.352.267.235.4.576.4,1.024v3.104h4.16c.384,0,.693.118.928.352.234.235.352.534.352.896,0,.342-.117.64-.352.896-.234.257-.544.385-.928.385h-4.16v2.56c0,.427-.134.758-.4.992-.267.235-.592.352-.976.352-.363,0-.683-.116-.96-.352-.277-.234-.416-.565-.416-.992v-2.56h-4.256v2.56c0,.427-.139.758-.416.992-.277.235-.598.352-.961.352ZM464.341,230.866c-1.472,0-2.645-.171-3.519-.513-.875-.341-1.51-.917-1.904-1.728-.396-.811-.592-1.909-.592-3.296v-5.601c0-1.386.196-2.48.592-3.279.394-.8,1.029-1.376,1.904-1.728.874-.352,2.048-.527,3.519-.527h4.576c1.472,0,2.65.176,3.536.527.885.352,1.52.929,1.904,1.728.384.8.576,1.893.576,3.279v5.601c0,1.387-.192,2.485-.576,3.296-.385.811-1.019,1.387-1.904,1.728-.886.342-2.064.513-3.536.513h-4.576ZM461.077,221.266h4.256v-4.447h-.832c-.896,0-1.595.079-2.096.239-.502.16-.849.448-1.04.864-.192.416-.288,1.029-.288,1.84v1.504ZM464.501,228.242h.832v-4.416h-4.256v1.504c0,.789.096,1.397.288,1.824.191.427.538.715,1.04.863.501.149,1.2.225,2.096.225ZM467.926,221.266h4.256v-1.504c0-.81-.097-1.424-.289-1.84-.191-.416-.533-.704-1.023-.864-.491-.16-1.195-.239-2.112-.239h-.831v4.447ZM467.926,228.242h.831c.917,0,1.621-.075,2.112-.225.49-.148.832-.436,1.023-.863.192-.427.289-1.035.289-1.824v-1.504h-4.256v4.416Z" fill="#658c81"/>
      <path d="M481.365,231.474c-.406-.171-.668-.453-.784-.848-.118-.395-.069-.763.143-1.104.747-1.258,1.355-2.58,1.824-3.968.469-1.387.816-2.943,1.04-4.672.224-1.727.336-3.733.336-6.016v-1.28c0-1.664.214-2.96.64-3.888.428-.929,1.168-1.579,2.225-1.952,1.057-.373,2.512-.56,4.367-.56h4v-3.552c0-.469.15-.837.449-1.104.298-.267.65-.4,1.056-.4.427,0,.789.133,1.088.4.298.267.448.635.448,1.104v3.552h10.048c.384,0,.698.128.944.384.244.256.367.566.367.928s-.123.672-.367.928c-.246.256-.561.384-.944.384h-17.089c-1.173,0-2.079.097-2.719.288-.641.192-1.084.56-1.328,1.104-.246.544-.368,1.339-.368,2.384v1.312c0,2.348-.112,4.454-.337,6.32-.223,1.867-.575,3.568-1.055,5.104-.48,1.536-1.126,3.008-1.936,4.416-.214.362-.513.612-.895.752-.385.139-.769.133-1.152-.017ZM508.404,230.898c-.383.192-.768.229-1.151.112-.384-.117-.683-.368-.895-.752-.214-.427-.448-.875-.705-1.344-.256-.469-.533-.96-.832-1.472-1.066.213-2.314.453-3.743.72-1.43.267-2.917.533-4.464.8s-3.046.512-4.496.736c-1.451.224-2.731.41-3.84.56-.47.064-.864-.016-1.184-.24-.319-.224-.512-.56-.575-1.008-.043-.427.053-.789.287-1.088.234-.299.576-.458,1.024-.479.362-.043.747-.091,1.151-.144.405-.053.821-.101,1.248-.144.405-.875.859-1.92,1.36-3.137.501-1.216.997-2.49,1.488-3.823.49-1.333.938-2.63,1.344-3.889.405-1.258.726-2.356.96-3.296.106-.448.347-.763.721-.943.373-.182.762-.208,1.168-.08.426.106.731.331.912.672.18.341.218.715.111,1.12-.256.917-.576,1.936-.96,3.056-.384,1.12-.8,2.267-1.248,3.439-.448,1.174-.901,2.32-1.36,3.44-.459,1.12-.891,2.128-1.295,3.024,1.769-.234,3.557-.496,5.359-.784,1.803-.288,3.365-.549,4.687-.784-.533-.852-1.077-1.69-1.631-2.512-.556-.821-1.11-1.584-1.664-2.288-.215-.299-.283-.624-.209-.976.074-.352.262-.634.56-.848.341-.213.698-.288,1.072-.224.373.063.676.245.912.544.746.96,1.535,2.048,2.367,3.264.832,1.216,1.621,2.416,2.368,3.6.747,1.185,1.354,2.225,1.824,3.12.213.385.261.769.144,1.152-.117.384-.389.683-.816.896Z" fill="#658c81"/>
      <path d="M514.709,224.594c-.405.149-.784.123-1.137-.08-.352-.202-.58-.484-.687-.848-.107-.384-.069-.736.112-1.056.181-.32.475-.555.88-.704.106-.043.453-.16,1.04-.352.587-.191,1.274-.427,2.063-.704v-8.704h-2.848c-.384,0-.693-.128-.928-.384-.234-.256-.352-.555-.352-.895,0-.362.117-.667.352-.912.234-.245.544-.368.928-.368h2.848v-5.568c0-.427.133-.763.4-1.008.267-.245.592-.368.976-.368.404,0,.735.123.992.368.256.246.383.581.383,1.008v5.568h2.721c.384,0,.693.123.928.368.234.245.351.55.351.912,0,.341-.117.64-.351.895-.234.256-.544.384-.928.384h-2.721v7.744l2.593-.928c.341-.106.667-.101.976.016.309.118.518.326.624.624.128.363.128.694,0,.992-.128.299-.374.523-.735.672-.129.043-.476.182-1.041.416-.564.235-1.236.502-2.016.8-.779.3-1.557.604-2.336.912-.779.309-1.456.576-2.031.801-.576.224-.929.357-1.057.399ZM534.997,231.57c-.384,0-.716-.102-.992-.305-.277-.203-.437-.507-.479-.912-.021-.384.09-.72.336-1.008.244-.288.56-.442.943-.464.875-.063,1.499-.171,1.872-.32.373-.148.645-.522.816-1.119.128-.47.272-1.072.432-1.809.16-.736.282-1.477.368-2.224.085-.704.026-1.2-.176-1.488-.203-.288-.571-.464-1.103-.528-.556,1.28-1.275,2.55-2.16,3.808-.887,1.259-1.878,2.421-2.976,3.487-1.1,1.067-2.268,1.963-3.504,2.688-.299.192-.629.277-.992.256-.363-.021-.662-.16-.896-.416-.213-.234-.309-.518-.287-.848.02-.331.17-.603.447-.816,1.729-1.045,3.259-2.298,4.592-3.76,1.334-1.461,2.395-2.938,3.185-4.432h-1.952c-.64,1.109-1.451,2.197-2.432,3.264-.981,1.067-2.043,2.043-3.184,2.928-1.143.886-2.299,1.627-3.473,2.225-.342.17-.687.218-1.04.144-.352-.075-.613-.283-.784-.624-.148-.277-.186-.576-.111-.896.074-.32.261-.555.56-.704,1.003-.491,1.989-1.077,2.96-1.761.971-.682,1.877-1.418,2.721-2.208.842-.788,1.551-1.578,2.127-2.367h-2.367c-1.451,1.621-2.998,2.976-4.641,4.063-.299.192-.635.272-1.008.24-.373-.032-.667-.176-.88-.432-.192-.257-.273-.555-.24-.896.032-.341.186-.597.464-.768.832-.533,1.648-1.146,2.448-1.841.8-.692,1.552-1.418,2.257-2.176.703-.757,1.289-1.477,1.76-2.16h-3.648c-.342,0-.607-.122-.801-.367-.191-.245-.287-.518-.287-.816s.096-.565.287-.8c.193-.234.459-.353.801-.353h17.504c.341,0,.607.118.8.353.192.234.288.501.288.8s-.096.571-.288.816c-.192.245-.459.367-.8.367h-11.103c-.342.598-.726,1.206-1.152,1.824h7.809c1.449,0,2.506.309,3.168.928.66.619.906,1.676.735,3.168-.192,1.942-.48,3.616-.864,5.024-.32,1.173-.869,2-1.648,2.48-.778.479-1.914.73-3.407.752ZM531.221,213.554c-1.365,0-2.437-.148-3.216-.448-.778-.298-1.328-.826-1.647-1.584-.32-.757-.48-1.808-.48-3.151,0-1.365.16-2.427.48-3.184.319-.757.869-1.285,1.647-1.584.778-.299,1.851-.448,3.216-.448h2.528c1.386,0,2.464.149,3.231.448.769.299,1.313.827,1.633,1.584.32.757.479,1.819.479,3.184,0,1.344-.159,2.394-.479,3.151-.32.758-.864,1.286-1.633,1.584-.768.3-1.846.448-3.231.448h-2.528ZM531.477,211.314h2.049c1.045,0,1.76-.116,2.143-.352.384-.234.618-.778.704-1.632h-7.775c.084.853.324,1.397.719,1.632.394.235,1.115.352,2.16.352ZM528.629,207.25h7.712c-.085-.81-.325-1.323-.72-1.536-.394-.213-1.094-.32-2.096-.32h-2.049c-1.002,0-1.707.107-2.111.32-.406.213-.651.726-.736,1.536Z" fill="#658c81"/>
    </g>
  </g>
</svg>