<?xml version="1.0" encoding="utf-8"?>
<!-- Generator: Adobe Illustrator 15.0.0, SVG Export Plug-In . SVG Version: 6.00 Build 0)  -->
<!DOCTYPE svg PUBLIC "-//W3C//DTD SVG 1.1//EN" "http://www.w3.org/Graphics/SVG/1.1/DTD/svg11.dtd">
<svg version="1.1" id="レイヤー_1のコピー" xmlns="http://www.w3.org/2000/svg" xmlns:xlink="http://www.w3.org/1999/xlink"
	 x="0px" y="0px" width="64px" height="64px" viewBox="0 0 64 64" enable-background="new 0 0 64 64" xml:space="preserve">
<g>
	<path fill="#658C81" d="M7.4,6c4.4,0,11.1,2.3,15,6.6c0.8,0.9,1.9,1.3,3,1.3c0.3,0,0.6,0,0.9-0.1c1.9-0.4,3.8-0.7,5.8-0.7
		c1.9,0,3.8,0.2,5.7,0.7c0.3,0.1,0.7,0.1,1,0.1c1.1,0,2.2-0.5,3-1.3C45.6,8.4,52.2,6,56.5,6c0.6,0,1,0,1.3,0.1
		c0.4,2.5-0.9,9.8-2.9,16.2c-0.3,1-0.2,2.2,0.3,3.1c1.5,2.9,2.9,8.2,2.9,11.6C58,49,46.8,58,32,58C17,58,6,49.2,6,37.1
		c0-3.5,1.5-8.8,2.9-11.7c0.5-0.9,0.5-2,0.2-3C7.1,15.9,5.7,8.7,6,6.1C6.4,6,6.8,6,7.4,6 M7.4,2C6,2,4.7,2.2,3.7,2.6
		c-4.6,1.9,1.7,21,1.7,21C3.7,27,2,32.9,2,37.1C2,52.1,15.5,62,32,62c16.6,0,30-10.2,30-24.9c0-4-1.4-10-3.3-13.5c0,0,6.1-19,1.4-21
		c-1-0.4-2.2-0.6-3.6-0.6c-5.3,0-13.1,2.8-17.8,8c-2.2-0.6-4.4-0.9-6.7-0.9c-2.2,0-4.5,0.3-6.7,0.8C20.7,4.8,12.8,2,7.4,2L7.4,2z"/>
	<g id="鼻_00000083050300152111916500000017247468740869829301_">
		<path fill="#658C81" d="M28.1,47.1c0.5-1.9,7.1-1.8,7.9,0c0.5,1.3-2.6,3.9-4,3.9C30.6,51,27.7,48.4,28.1,47.1z"/>
	</g>
	<g>
		<ellipse fill="#658C81" cx="47.9" cy="38" rx="2.9" ry="3.8"/>
		<ellipse fill="#658C81" cx="16" cy="38" rx="2.9" ry="3.8"/>
	</g>
</g>
</svg>
