<?xml version="1.0" encoding="utf-8"?>
<!-- Generator: Adobe Illustrator 15.0.0, SVG Export Plug-In . SVG Version: 6.00 Build 0)  -->
<!DOCTYPE svg PUBLIC "-//W3C//DTD SVG 1.1//EN" "http://www.w3.org/Graphics/SVG/1.1/DTD/svg11.dtd">
<svg version="1.1" id="tea-cup" xmlns="http://www.w3.org/2000/svg" xmlns:xlink="http://www.w3.org/1999/xlink" x="0px" y="0px"
	 width="96px" height="96px" viewBox="0 0 96 96" enable-background="new 0 0 96 96" xml:space="preserve">
<g>
	<path fill="#658C81" d="M46.6,66.3c-21.3,0-35.1-16-35.1-40.8c0-1.7,1.3-3,3-3h64.2c1.7,0,3,1.3,3,3c0,1.9-0.1,3.7-0.2,5.4
		c3.6,0,7.3,1.4,9.7,3.9c2.9,2.9,3.7,6.7,2.3,10.8c-2.8,8.4-12.3,10.9-20.4,9.1C67.1,62.2,58,66.3,46.6,66.3z M17.6,28.5
		c0.9,15.9,8.8,31.8,29,31.8c23.5,0,28.4-18.7,29-31.8H17.6z M76.7,49.1c4.3,0.4,9.6-0.8,11.2-5.5c0.6-1.9,0.3-3.4-0.9-4.6
		c-1.5-1.5-4-2.3-6.3-2.1C79.9,41.4,78.5,45.5,76.7,49.1z"/>
	<path fill="#658C81" d="M88.4,75.9H4.8c-1.7,0-3-1.3-3-3s1.3-3,3-3h83.5c1.7,0,3,1.3,3,3S90,75.9,88.4,75.9z"/>
</g>
</svg>
