<?xml version="1.0" encoding="UTF-8"?>
<svg id="large-logo" xmlns="http://www.w3.org/2000/svg" version="1.1" viewBox="0 0 1000 646.3">
  <!-- Generator: Adobe Illustrator 30.3.0, SVG Export Plug-In . SVG Version: 2.1.3 Build 182)  -->
  <g id="logo">
    <g id="teacup">
      <path d="M808.1,257.9c-5.7,0-11.4-.5-17-1.4-27.9-4.5-52.3-19.6-68.9-42.5-16.5-22.9-23.2-50.8-18.7-78.7,4-24.9,16.9-47.6,36.1-63.9,19.1-16.1,43.3-25,68.1-25s11.4.5,17,1.4c27.9,4.5,52.3,19.6,68.9,42.5,16.5,22.9,23.2,50.8,18.7,78.7-4,24.9-16.9,47.6-36.1,63.9-19.1,16.1-43.3,25-68.1,25h0ZM831.3,102.2c-14.1,0-27.1,3.9-45,23-23.8,26.9-22.2,67.3-22.2,67.7,0,.7.6,1.3,1.3,1.4.2,0,3.8.5,9.7.5,13.5,0,39.2-2.4,58.7-18.8,26.7-22.3,27.2-37.6,27.8-52.3v-1.4c0-.4,0-.8-.4-1.1-.3-.3-.7-.4-1.1-.4h-15.9c0,0-.7-16.6-.7-16.6,0-.7-.6-1.3-1.3-1.4-4.3-.4-7.8-.6-10.9-.6h0Z" fill="#df866f"/>
      <path d="M965.1,179.2l-1.3-.4c-2.7-.8-7.3-2.2-13.1-3.6,11.5-70.6-30.9-140.4-101.2-161.5-13.8-4.1-27.8-6.1-41.5-6.1-62.2,0-119.6,40.5-138.4,103.1-22.9,76.5,20.5,157,97,179.9,13.8,4.1,27.8,6.1,41.5,6.1,58,0,111.9-35.2,134.1-90.8,4.4,1.6,8.6,2.9,13.7,4.4,12.6,3.6,22.5,6.2,29.8,6.2s7.4-.9,9.7-2.9c2.2-2,3-4.6,3.8-7.1,3.2-10.7-1.1-17.5-34-27.4ZM890.5,264.6c-23.8,17.5-53.1,27.1-82.5,27.1s-27-2-40.1-5.9c-35.7-10.7-65.1-34.6-82.7-67.4-17.7-32.8-21.5-70.5-10.8-106.2,8.8-29.3,26.4-54.4,51-72.4,23.8-17.5,53.1-27.1,82.5-27.1s27,2,40.1,5.9c35.7,10.7,65.1,34.6,82.7,67.4,17.7,32.8,21.5,70.5,10.8,106.2-8.8,29.3-26.4,54.4-51,72.4ZM994.2,205.1c-.6,2-1.1,3.7-2.3,4.8-4.7,4.2-22.1-.8-34.7-4.4-4.9-1.4-9-2.7-13.3-4.2.9-2.5,1.7-5,2.5-7.6,1.3-4.5,2.4-9,3.3-13.4,5.5,1.4,9.9,2.7,12.6,3.5l1.3.4c33.8,10.1,32.2,15.7,30.6,21Z" fill="#df866f"/>
    </g>
    <g>
      <path d="M142.5,353.3c-4.8-6.6-10.3-12-16.5-16.2-6.1-4.2-13.1-7.9-20.7-11.1-14.7-6.3-26.7-11.2-35.9-14.6-9.3-3.4-16.3-6.4-21.5-9-5-2.4-8.9-5.4-11.6-8.8-2.7-3.4-5.2-8.6-7.3-15.2-3.8-12.3-3.8-23.2,0-32.2,3.8-9,9.4-15.4,16.9-19.1,6.5-3.2,12.8-4.5,18.7-3.7,6.1.7,11.9,2.8,17.2,6,5.3,3.3,9.8,7.4,13.4,12.4l2.7,3.7,1.8-4.2c1.5-3.7,2.9-8.5,3.9-14.3,1.1-6.1.7-12.2-1.1-18.2-2.5-8.2-6.8-14-12.6-17.3-5.7-3.2-12.4-4.4-19.7-3.5-7.2.8-14.4,3-21.6,6.6-12.7,6.3-23.3,14.9-31.4,25.5-8.1,10.6-13.5,22.8-15.8,36.3-2.4,13.5-1.1,28.2,3.7,43.7,4.5,14.6,11.2,25.6,20,32.7,8.6,6.9,18.3,12.7,28.8,17l30.7,12.3c8.5,3.4,15.8,6.9,21.6,10.2,5.7,3.3,10.5,7.4,14.3,12,3.8,4.7,6.8,10.7,9,18,2.8,8.9,3.3,17,1.7,24.1-1.7,7.1-4.6,13.2-8.8,18.1-4.2,4.9-8.9,8.7-14,11.2-6.4,3.2-12.7,4.8-18.8,4.8s-9.2-.9-13.6-2.8c-10.4-4.3-20.3-14.5-29.2-30.3l-3-5.3-1.7,5.9c-1.8,6.3-3.1,12.6-4.1,18.7-1,6.5-.4,13.2,1.7,19.9,3.2,10.3,8.8,17.4,16.8,21.2,5.8,2.8,12.3,4.2,19.3,4.2s4.7-.2,7.1-.5c9.3-1.2,18.5-3.9,27.2-8.2l.6-.3c12.9-6.4,23.5-15.4,31.5-26.6,7.9-11.2,13.1-23.6,15.4-37.1,2.3-13.5,1.4-26.8-2.6-39.8-3.3-10.8-7.4-19.6-12.2-26.2ZM152.2,418.5c-2.1,12.7-7,24.4-14.5,34.9-7.3,10.3-17.1,18.6-29,24.7l-.6.3c-8.4,4.2-17.1,6.8-26.1,8-8.8,1.1-16.7,0-23.5-3.3-6.7-3.2-11.4-9.1-14.1-18.1-1.9-6-2.4-11.9-1.5-17.6.6-4,1.4-8.1,2.4-12.3,8.7,13.9,18.3,23,28.5,27.2,11.7,4.8,24.1,4.1,36.6-2.2,5.6-2.8,10.9-7,15.6-12.5,4.7-5.5,8.1-12.3,9.9-20.3,1.9-8,1.3-17-1.8-26.8-2.4-7.9-5.8-14.5-10-19.7-4.1-5.1-9.4-9.6-15.7-13.2-6-3.5-13.5-7-22.2-10.6l-30.6-12.3c-10.1-4.1-19.4-9.6-27.5-16.2-7.9-6.4-14.1-16.6-18.3-30.3-4.6-14.7-5.7-28.7-3.5-41.3,2.2-12.7,7.2-24.1,14.8-34,7.7-10,17.7-18,29.7-24,6.6-3.3,13.3-5.3,19.8-6.1,6.3-.7,11.9.3,16.7,2.9,4.6,2.6,8.1,7.4,10.2,14.3,1.6,5.2,1.9,10.5,1,15.8-.6,3.4-1.3,6.5-2.1,9.1-3.4-3.9-7.4-7.3-11.9-10-5.9-3.6-12.4-5.9-19.2-6.7-7-.8-14.3.6-21.6,4.2-8.6,4.3-15.1,11.6-19.3,21.7-4.3,10.2-4.3,22.2,0,35.7,2.3,7.4,5,12.9,8.1,16.9,3.2,4,7.7,7.4,13.4,10.2,5.4,2.7,12.6,5.7,22,9.2,9.1,3.4,21.1,8.3,35.6,14.5,7.3,3.1,14,6.7,19.8,10.6,5.7,3.9,10.8,8.9,15.2,15,4.4,6.2,8.3,14.5,11.4,24.7,3.8,12.2,4.6,24.7,2.4,37.4Z" fill="#df866f"/>
      <g>
        <path d="M243.9,318.4c-3.7-4.3-8-10.6-12.7-18.8-2.7-4.8-5.5-9.9-8.1-15.3-2.7-5.5-5.2-10.8-7.4-15.9-2.3-5.3-4.1-10-5.6-14.2-1.5-4.3-2.4-7.7-2.8-10.2l-.2-1.5-1.5-.5c-4.2-1.4-8.2-1.1-11.7.9-2.7,1.5-4.3,3.6-5,6.2-.3,1.4-.4,2.9-.2,4.7-8-1.9-15.7-.8-23,3.4-6.2,3.5-11,8.6-14.3,15-3.3,6.3-5.2,13.6-5.7,21.8-.5,8,.5,16.7,2.8,25.7,2.3,9,6.1,18,11.2,27,6.5,11.3,13.6,19.2,21.2,23.5,4.2,2.4,8.4,3.6,12.4,3.6s7.1-1,10.5-2.9l.3-.2h0c4-2.5,7-7.1,9-14.2,1.9-6.7,3-15,3-24.7,0-4.7-.2-9.5-.6-14.5.5,1,1,1.8,1.4,2.6,5.7,10,11.1,16.8,16.3,20.9,5.8,4.5,11.3,5.4,16.1,2.6,4.3-2.5,7-6.7,7.8-12.5l.2-1.7-1.5-.9c-4.3-2.4-8.3-5.8-11.9-9.9ZM212.5,300.2l-6.6-13.5,2.8,15.1c1.9,10.6,2.4,20.6,2.3,29.9,0,9.2-1,17.1-2.8,23.3-1.7,5.8-4,9.7-7,11.3h-.2c-2.5,1.5-5.1,2.2-7.7,2.2s-6.5-1-9.9-3c-6.8-3.9-13.3-11.1-19.3-21.6-4.9-8.5-8.5-17.2-10.7-25.7-2.2-8.5-3.1-16.6-2.6-24.1.4-7.4,2.2-14.1,5.1-19.7,2.9-5.5,7-9.9,12.3-12.9,4.2-2.4,8.6-3.6,13-3.6s6.5.6,9.9,1.9l4.7,1.7-1.3-4.8c-1-3.6-.9-5.5-.6-6.5.3-1.2,1.1-2.2,2.6-3,1.9-1.1,3.9-1.4,6.1-.9.5,2.6,1.4,5.7,2.8,9.5,1.5,4.4,3.4,9.1,5.7,14.6,2.2,5.2,4.7,10.6,7.5,16.1,2.7,5.5,5.5,10.7,8.3,15.6,4.9,8.5,9.3,15.1,13.3,19.6,3.6,4.1,7.5,7.5,11.7,10.1-.8,3.3-2.4,5.7-5,7.1-1.1.6-2.1.9-3.3.9-2.1,0-4.5-1-7.2-3.1-4.6-3.6-9.7-10.2-15-19.4-.8-1.4-1.7-3-2.6-5l-6.2-12.1Z" fill="#df866f"/>
        <path d="M200.6,347.4c.6-1.3,1.2-2.8,1.6-4.6,1-3.9,1.5-8.8,1.7-14.5.2-5.7,0-11.7-.7-18-.6-6.3-1.7-12.6-3-18.7-1.4-6.1-3.1-11.8-5.3-16.7l-.5-1.1-1.2-.2c-8.4-1.1-15.3-.1-20.5,2.9-5,2.9-8.4,7.5-9.9,13.7-1.5,5.9-1.4,12.9.4,20.7,1.7,7.7,5.1,15.9,10,24.4,3.8,6.6,7.7,11.4,11.7,14.3,1.1.8,2.1,1.4,3.2,1.9l-.3.2h.7c1.4.6,2.8.9,4.2.9h0c1.6,0,3.1-.4,4.5-1.2l3.6-4.1ZM199.5,328.2c-.2,5.4-.7,9.9-1.6,13.6-1,3.9-2.2,5.4-3.1,5.9h-.2c-.7.5-1.3.6-2,.6-1.5,0-3.2-.7-5.2-2.1-3.5-2.5-7-6.9-10.5-12.9-4.7-8.1-7.9-16-9.5-23.2-1.6-7.1-1.8-13.4-.4-18.7,1.3-5.1,3.8-8.6,7.8-10.9,3.2-1.8,7.2-2.8,12-2.8s3,0,4.5.3c1.8,4.4,3.4,9.3,4.5,14.7,1.3,6,2.3,12.1,2.9,18.2.6,6.1.9,11.9.7,17.4Z" fill="#df866f"/>
      </g>
      <path d="M327.1,248l-2.1,1c-3,1.4-6.4,2-10.1,1.7-3.9-.3-7.8-1.1-11.6-2.2-5.1-1.6-10.9-3.9-17.4-7-5.8-2.8-12-5.7-18.3-8.8,2-8,3.8-15.7,5.4-23,1.6-7.8,2.8-14.3,3.5-19.4.9-7.1.5-9.5-.4-10.8-1-1.6-3.1-3.5-7.2-3.5s-.9,0-1.3,0c-3.4.3-7.1,1.7-11.2,4.4l-1.7,1.1.7,1.9c.5,1.5,1.1,4.9.8,12.2-.2,6.1-1,13.5-2.2,21.8-.9,6.2-2.1,12.9-3.6,19.8-2.1-4.3-4.1-8.8-6.2-13.3-3.1-6.8-6-13.3-8.9-19.6-2.7-6-5.4-11.7-8-17-2.4-5.1-4.7-9.1-6.6-12.1-3.8-5.8-7.3-9.3-10.8-10.5-3.7-1.3-7.5-.7-11.2,1.7-1.5,1-3,2.4-4.7,4.3-1.7,2-2.9,4-3.4,5.9l-.5,1.9,1.7,1c2.8,1.7,5.3,3.9,7.4,6.5,2.2,2.8,4.4,5.8,6.5,9.1,3.7,5.7,7.5,12.2,11.1,19.3,3.7,7.2,7.3,14.5,10.7,21.7,4,8.6,7.2,15.4,9.9,21.5,3.6,7.8,6.4,13.8,8.7,18.8,2.7,5.7,5.2,10.2,7.3,13.5,4.8,7.4,9.2,11.7,13.3,13.2,1.6.6,3.3.9,4.8.9,2.6,0,5.1-.8,7.5-2.3,1.3-.9,2.7-2.3,4.2-4.3,1.5-2.1,2.6-4.9,3.1-8.4l.3-2.2-2.2-.6c-3.3-.9-6.1-2.6-8.5-5-2.6-2.6-5-5.7-7.2-9.1-1.3-2-2.6-4.2-4.1-6.7-1.3-2.2-2.5-4.4-3.8-6.7l1.5-5.4c7.9,3.9,15.2,7.6,21.8,10.9,7.6,3.9,13.9,6.6,18.7,8,5.2,1.7,9.6,2.4,13.3,2.3,3.9-.1,6.9-.9,9.1-2.3l1.2-.8h0c.9-.9,1.8-1.9,2.7-3.2,1.4-2,2.3-4.5,2.4-7.5.2-3.1-.9-6.5-3.3-10.4l-1.2-1.9ZM325,264.8c-1.2,1.7-2.1,2.4-2.5,2.7l-.3.2c-1.4.8-3.4,1.2-6.1,1.3-3.1,0-6.9-.6-11.6-2.1-4.5-1.4-10.5-4-17.9-7.7-7.3-3.7-15.6-7.8-24.6-12.3l-2.8-1.4-3.7,13.3.5.9c1.5,2.6,2.9,5.2,4.3,7.7,1.5,2.6,2.9,4.9,4.2,6.9,2.4,3.7,5,7,7.8,9.8,2.5,2.5,5.3,4.4,8.6,5.7-.4,1.7-1,3-1.7,4-1.4,1.9-2.4,2.7-2.9,3.1-2.5,1.6-5,1.9-7.8.9-2.1-.7-5.6-3.3-10.7-11.1-2-3.1-4.4-7.5-7-12.9-2.4-5-5.1-10.9-8.7-18.7-2.8-6.1-5.9-12.9-10-21.5-3.4-7.3-7.1-14.7-10.8-21.9-3.7-7.2-7.5-13.8-11.4-19.7-2.2-3.4-4.5-6.5-6.7-9.4-2-2.6-4.3-4.8-6.9-6.6.4-.7.9-1.5,1.6-2.3,1.3-1.5,2.5-2.7,3.6-3.4,2.4-1.6,4.5-1.9,6.7-1.2,1.6.6,4.4,2.5,8.3,8.5,1.8,2.8,3.9,6.7,6.3,11.6,2.5,5.2,5.2,10.9,7.9,16.9,2.9,6.3,5.8,12.8,8.9,19.6,3.1,6.9,6.3,13.6,9.4,20l3.1,6.4,1.6-6.9c2.3-9.6,4.1-18.8,5.3-27.3,1.3-8.6,2-16.1,2.3-22.4.2-5.2,0-9.2-.6-12,2.7-1.6,5.1-2.4,7.3-2.6.3,0,.6,0,.9,0,2,0,2.6.7,2.9,1.1,0,.3.4,1.9-.3,7.5-.6,5-1.8,11.4-3.4,19-1.7,7.9-3.6,16.2-5.8,24.8l-.5,2,1.9.9c7,3.4,13.8,6.7,20.2,9.7,6.7,3.2,12.7,5.6,18,7.2,4.2,1.3,8.4,2.1,12.7,2.4,3.7.3,7.2-.1,10.4-1.2,1.1,2.1,1.6,4,1.5,5.5-.1,2-.6,3.6-1.5,4.8Z" fill="#df866f"/>
      <path d="M370.2,240.2c1.3-1.8,2.5-4,3.3-6.5,1.7-4.9,2.8-10.8,3.2-17.6.4-6.7.3-13.8,0-21,0-1.7-.2-3.5-.3-5.2.7,1.5,1.5,3,2.3,4.5,5.3,9.8,10.4,16.7,15.6,21.1,5.7,4.8,11.3,5.9,16.3,3.2,2-1.1,3.7-2.7,5.1-4.7,1.4-2,2.4-4.5,3-7.4l.4-1.8-1.6-.9c-4.7-2.8-8.9-6.6-12.5-11.1-3.7-4.7-7.5-10.8-11.5-18.2-2.3-4.3-4.5-9.4-6.4-14.9-2-5.8-4-11.6-6.1-17.6-2.1-6.1-4.6-11.7-7.3-16.8-2.5-4.7-5.6-7.4-9.3-8-3.4-.6-6.7-.1-9.6,1.5-1.5.8-3.2,2.1-5,3.9-1.9,1.9-3.2,3.8-3.9,5.9l-.6,1.7,1.4,1.1c2.9,2.2,5.4,5.4,7.6,9.5,1.6,3,3.1,7,4.5,11.9,1.5,5.2,2.7,10.8,3.6,16.8,1,6,1.7,12.2,2.1,18.5.5,6.1.6,12,.3,17.4-.3,5.3-.9,9.8-1.9,13.4-1.1,3.9-2.4,5.3-3.3,5.8-1.6.9-2.8.9-4.2-.1-1.8-1.3-3.5-3.3-5.1-6.2-2.6-4.9-5.3-10.6-7.9-17-2.6-6.4-5.2-12.9-7.5-19.4-2.5-6.8-4.6-12.6-6.5-17.7-2-5.4-3.7-9.2-5-11.7-2.5-4.6-5.6-7.4-9.2-8.1-3.4-.7-6.6-.2-9.6,1.4-1.6.9-3.3,2.2-5.2,4-1.9,1.9-3.2,3.9-3.8,5.9l-.6,1.8,1.6,1c2.5,1.7,4.8,3.9,6.6,6.7,2,3,3.8,6,5.4,9,3.7,6.9,6.8,13.5,9,19.6,2.3,6.3,4.4,12.4,6.3,17.9,2,5.9,4.6,11.8,7.6,17.4,2.2,4.1,4.9,7.9,7.9,11.2,3.2,3.6,7,5.9,11.1,7,1.3.3,2.6.5,3.9.5,3.2,0,6.7-1,10.3-2.9l5.4-4.8ZM411.2,211c-.9,1.4-2.1,2.4-3.3,3.1-1,.6-2.1.8-3.2.8-2.2,0-4.7-1.2-7.4-3.4-4.6-3.9-9.4-10.5-14.4-19.6-1.7-3.2-3.3-6.5-4.5-9.8-1.3-3.4-2.6-6.6-3.7-9.4l-4.5-11.3,1.1,12.5c.7,7.2.7,14.4,1.1,21.5.4,7.1.1,13.9-.2,20.5-.4,6.3-2,11.8-3.6,16.2-1.4,4.1-3.6,6.9-6.4,8.5l-.5.3c-3.7,1.9-7,2.5-9.9,1.7-3.2-.8-6.1-2.7-8.7-5.5-2.7-3-5.2-6.5-7.2-10.2-2.9-5.4-5.4-11-7.3-16.6-1.9-5.6-4.1-11.7-6.4-18-2.3-6.3-5.4-13.2-9.3-20.3-1.7-3.1-3.6-6.3-5.6-9.4-1.8-2.7-3.9-5-6.3-6.9.4-.7,1-1.4,1.8-2.1,1.5-1.5,2.8-2.5,4-3.1,1.9-1.1,3.9-1.3,6.2-.9,2,.4,3.9,2.2,5.7,5.5,1.2,2.2,2.8,6,4.7,11.1,1.9,5.1,4,10.8,6.5,17.6,2.4,6.6,4.9,13.2,7.6,19.6,2.7,6.6,5.4,12.4,8.2,17.5,1.9,3.6,4.2,6.2,6.6,8,2.9,2.1,6.3,2.2,9.6.4,2.6-1.4,4-4.3,5.3-8.9,1.1-4,1.8-8.7,2.1-14.5.3-5.6.1-11.7-.3-18-.5-6.4-.7-12.8-1.7-18.9-1-6.2-2.2-12-3.7-17.4-1.5-5.3-3.2-9.7-4.9-13-2.2-4-4.6-7.3-7.4-9.8.5-.8,1.1-1.6,1.9-2.4,1.5-1.4,2.7-2.5,3.8-3.1,1.9-1.1,4-1.4,6.3-.9,2,.4,4,2.2,5.7,5.5,2.6,4.8,5,10.3,7,16.1,2.1,6,4.1,11.8,6,17.6,2,5.8,4.2,11.1,6.7,15.7,4.1,7.6,8.2,14,12,18.9,3.5,4.5,7.7,8.3,12.3,11.3-.5,1.5-1,2.8-1.8,3.9Z" fill="#df866f"/>
      <g>
        <path d="M508.8,129.5l-2.3,1.1c-3.7,1.7-7.8,2.3-12.2,1.6-4.6-.7-9.6-2.3-14.9-4.8-5.4-2.6-11.2-5.7-17.1-9.3-5.5-3.3-11.2-6.7-17-9.9,3.7-6.2,6.8-12.7,9.3-19.3,2.8-7.6,4.2-15.4,4.1-23.2-.1-7.9-2.6-15.6-7.3-22.7-5.2-7.9-11.2-13-17.8-15-6.5-2-13.4-1.9-20.5.3-6.9,2.1-13.8,5.5-20.5,9.9-5.3,3.5-10.6,7.5-15.7,11.9-5,4.4-9.8,8.8-14.3,13.1l-2.1,2,2.2,1.8c1.7,1.3,3.6,3.3,5.8,5.7,2.2,2.5,4,4.6,5.2,6.5,3.1,4.6,6.4,10.5,10,17.5,3.5,6.9,7.2,14.4,10.8,22.3,4,8.7,7.5,16.4,10.7,23.4,3.4,7.5,6.7,14.5,9.9,20.9,3.2,6.4,5.8,11.2,8.2,14.7,5.2,7.8,9.8,12.4,14.2,13.9,1.7.6,3.4.9,5,.9,2.8,0,5.5-.8,8-2.5,1.4-.9,2.8-2.4,4.4-4.5,1.6-2.2,2.7-5.2,3.2-8.9l.3-2.3-2.2-.5c-3.6-.9-6.7-2.6-9.2-5.3-2.7-2.8-5.3-6.1-7.7-9.7-4.4-6.6-9-14.9-13.8-24.8,1.2-1.3,2.4-2.7,3.8-4.3,1.2-1.4,2.4-2.8,3.7-4.3,4,2.3,8.3,4.9,12.7,7.5,4.7,2.8,9.6,5.7,15.1,8.9,5.1,3,9.4,5.4,13.2,7.5,4,2.2,7,3.7,9.2,4.7,6,2.6,10.6,3.6,14.1,3.2,2-.3,3.8-.7,5.4-1.3v.4c.1,0,2.9-1.8,2.9-1.8,1.2-.8,2.5-2.1,4-4,1.5-2,2.5-4.7,2.8-7.8.3-3.2-.5-6.8-2.4-10.9l-1.1-2.3ZM507.2,142.1c-.2,2.2-.8,4-1.8,5.2-1,1.3-1.7,2-2.2,2.4l-.5.4c-1.5,1-3.5,1.6-6.1,2-2.5.3-6.4-.6-11.4-2.8-2-.9-5-2.4-8.8-4.5-3.8-2-8-4.5-13.1-7.4-5.4-3.2-10.3-6.1-15-8.9-5.1-3.1-10.1-6-14.7-8.7l-1.9-1.1-1.4,1.7c-1.7,2.1-3.4,4.1-4.9,5.9-1.8,2-3.4,3.8-4.9,5.5l-1.2,1.3.7,1.6c5.2,10.8,10.2,19.9,14.9,27,2.6,3.9,5.3,7.4,8.3,10.4,2.6,2.8,5.8,4.8,9.4,6-.4,1.8-1,3.3-1.9,4.4-1.5,2-2.5,2.9-3.1,3.3-2.7,1.8-5.4,2.1-8.5,1-2.2-.8-6.1-3.5-11.6-11.9-2.2-3.3-4.8-8.1-7.8-14.2-3.2-6.4-6.5-13.4-9.8-20.8-3.2-7.1-6.7-14.7-10.8-23.5-3.7-8-7.4-15.6-10.9-22.5-3.7-7.2-7.1-13.1-10.3-17.9-1.4-2.1-3.2-4.4-5.7-7.1-1.5-1.7-2.9-3.1-4.2-4.3,3.8-3.6,7.9-7.3,12.1-10.9,4.9-4.3,10-8.1,15.2-11.5,6.4-4.2,12.8-7.3,19.2-9.3,6.1-1.9,12-2,17.5-.3,5.4,1.7,10.5,6,15,12.9,4.2,6.3,6.4,13.1,6.5,20,.1,7.1-1.2,14.3-3.8,21.3-2.7,7.2-6.1,14.1-10.2,20.7l-1.4,2.3,2.3,1.3c6.5,3.7,13,7.4,19.1,11.1,6.1,3.7,12,6.9,17.6,9.6,5.7,2.7,11.2,4.5,16.3,5.3,4.4.7,8.7.4,12.6-1,.8,2.3,1.2,4.3,1,6Z" fill="#df866f"/>
        <path d="M444.5,73.9c-.3-6.3-2.4-12.5-6.3-18.4-3.9-5.9-8.3-9.8-13.2-11.8-4.9-2-10-2.4-15.2-1.3-5,1.1-10,3.8-14.9,7.1-3.4,2.3-6.8,6-9.9,8.9l-1.6,1.5,1.2,1.8c2.7,4.1,5.7,8.1,9,14.8,3.3,6.9,6.8,14.5,10.4,22.6,3.6,8.1,7.3,16.4,11.1,24.7l1.5,3.3,2.6-2.6c4.6-4.6,8.9-9.6,12.9-15.1,3.9-5.5,7.1-11.2,9.4-17.2,2.4-6.1,3.4-12.2,3.1-18.4ZM436.7,90.4c-2.2,5.5-5.1,10.9-8.8,16-3,4.2-6.3,8.2-9.7,11.8-3.3-7.2-6.5-14.3-9.6-21.2-3.6-8.2-7.1-15.8-10.5-22.8-2.9-6-5.6-9.5-8.1-13.5,2.5-2.2,5.1-5.2,7.7-7,4.4-2.9,8.8-5.4,13.2-6.4,4.2-.9,8.3-.6,12.2,1,3.9,1.6,7.6,5,10.9,9.9,3.4,5.1,5.2,10.4,5.5,15.8.3,5.4-.7,10.9-2.8,16.3Z" fill="#df866f"/>
      </g>
      <g>
        <path d="M584.7,77.3c-3.7-4.3-8-10.6-12.7-18.8-2.7-4.8-5.5-9.9-8.1-15.3-2.7-5.5-5.2-10.8-7.3-15.9-2.3-5.3-4.1-10-5.6-14.2-1.5-4.3-2.4-7.7-2.8-10.2l-.2-1.5-1.5-.5c-4.2-1.4-8.2-1.1-11.7.9-2.7,1.5-4.3,3.6-5,6.2-.3,1.4-.4,2.9-.2,4.7-8-1.9-15.7-.8-23,3.4-6.2,3.5-11,8.6-14.3,15-3.3,6.3-5.2,13.6-5.7,21.8-.5,8,.5,16.7,2.8,25.7,2.3,9,6.1,18,11.2,27,6.5,11.3,13.6,19.2,21.2,23.5,4.2,2.4,8.4,3.6,12.4,3.6s7.1-1,10.5-2.9l.3-.2h0c4-2.5,7-7.1,9-14.2,1.9-6.7,3-15,3-24.7,0-4.7-.2-9.5-.6-14.5.5,1,1,1.8,1.4,2.6,5.7,10,11.1,16.8,16.3,20.9,5.8,4.5,11.3,5.4,16.1,2.6,4.3-2.5,7-6.7,7.8-12.5l.2-1.7-1.5-.9c-4.3-2.4-8.3-5.8-11.9-9.9ZM553.3,59.1l-6.6-13.5,2.8,15.1c1.9,10.6,2.4,20.6,2.3,29.9,0,9.2-1,17.1-2.8,23.3-1.7,5.8-4,9.7-7,11.3h-.2c-2.5,1.5-5.1,2.2-7.7,2.2s-6.5-1-9.9-3c-6.8-3.9-13.3-11.1-19.3-21.6-4.9-8.5-8.5-17.2-10.7-25.7-2.2-8.5-3.1-16.6-2.6-24.1.4-7.4,2.2-14.1,5.1-19.7,2.9-5.5,7-9.9,12.3-12.9,4.2-2.4,8.6-3.6,13-3.6s6.5.6,9.9,1.9l4.7,1.7-1.3-4.8c-1-3.6-.9-5.5-.6-6.5.3-1.2,1.1-2.2,2.6-3,1.9-1.1,3.9-1.4,6.1-.9.5,2.6,1.5,5.7,2.8,9.5,1.5,4.4,3.4,9.1,5.7,14.6,2.2,5.2,4.7,10.6,7.5,16.1,2.7,5.5,5.5,10.7,8.3,15.6,4.9,8.5,9.3,15.1,13.3,19.6,3.6,4.1,7.5,7.5,11.7,10.1-.8,3.3-2.4,5.7-5,7.1-1.1.6-2.1.9-3.2.9-2.1,0-4.5-1-7.2-3.1-4.6-3.6-9.7-10.2-15-19.4-.8-1.4-1.7-3-2.6-5l-6.2-12.1Z" fill="#df866f"/>
        <path d="M541.4,106.2c.6-1.3,1.2-2.8,1.6-4.6,1-3.9,1.5-8.8,1.7-14.5.2-5.7,0-11.7-.7-18-.6-6.3-1.7-12.6-3-18.7-1.4-6.1-3.1-11.8-5.3-16.7l-.5-1.1-1.2-.2c-8.4-1.1-15.3-.1-20.5,2.9-5,2.9-8.4,7.5-9.9,13.7-1.5,5.9-1.4,12.9.4,20.7,1.7,7.7,5.1,15.9,10,24.4,3.8,6.6,7.7,11.4,11.7,14.3,1.1.8,2.1,1.4,3.2,1.9l-.3.2h.7c1.4.6,2.8.9,4.2.9h0c1.6,0,3.1-.4,4.5-1.2l3.6-4.1ZM540.3,87.1c-.2,5.4-.7,9.9-1.6,13.6-1,3.9-2.2,5.4-3.1,5.9h-.2c-.7.5-1.3.6-2,.6-1.5,0-3.2-.7-5.2-2.1-3.5-2.5-7-6.9-10.5-12.9-4.7-8.1-7.9-16-9.5-23.2-1.6-7.1-1.8-13.4-.4-18.7,1.3-5.1,3.8-8.6,7.8-10.9,3.2-1.8,7.2-2.8,12-2.8s3,0,4.5.3c1.8,4.4,3.4,9.3,4.5,14.7,1.3,6,2.3,12.1,2.9,18.2.6,6.1.9,11.9.7,17.4Z" fill="#df866f"/>
      </g>
      <path d="M743.2,565.1c-2.4-1.8-5-3-7.9-3.7l-4.2-1,1.1,4.1c2.4,8.8,2.6,16.7.5,23.5-2.1,6.8-5.9,12-11.8,16-6.4,4.3-12.9,6.5-19.3,6.5s-9.6-1.2-14.5-3.5c-11.9-5.7-24-17.4-35.9-34.9-2.7-4-5.8-9.2-9.3-15.8-3.4-6.4-6.5-13.5-9.3-21.1-2.8-7.5-4.7-15.1-5.7-22.6-1-7.3-.5-14.2,1.3-20.4,1.8-6.1,5.5-10.9,11.2-14.8,6.4-4.4,12.6-6.1,18.4-5.3,6.1.9,12.4,3.3,18.6,7.2l2.9,1.8.9-3.4c.8-3,1.3-6.5,1.6-10.5.3-4.5-1.3-9.3-4.8-14.3-4.1-6.1-10.3-8.8-18.1-7.9-7.3.8-14.8,3.9-22.5,9.1-8.9,6-15.7,13.5-20.3,22.3-4.5,8.7-7.3,18.2-8.3,28.4-1,10.1-.5,20.6,1.5,31.1,2,10.5,5.1,21,9.4,31.1,4.2,10.1,9.4,19.5,15.2,28.1,7.7,11.4,16.6,20.7,26.3,27.7,9.9,7.2,20.6,11.1,31.8,11.7.8,0,1.6,0,2.4,0,10.2,0,20.7-3.5,31.4-10.5h0s1.2-.8,1.2-.8c6.7-4.5,12.2-10,16.5-16.4,4.3-6.4,7-12.8,8.1-19.1,1.2-6.6.3-12.2-2.7-16.6-1.6-2.4-3.6-4.4-5.8-6.2ZM746.8,587c-1,5.6-3.5,11.4-7.3,17.1-3.6,5.4-8.3,10.2-13.9,14.1h0s-1.2.8-1.2.8c-11,7.5-21.7,10.9-31.9,10.4-10.2-.6-20-4.2-29.1-10.7-9.2-6.7-17.7-15.6-25-26.4-5.6-8.3-10.6-17.5-14.7-27.2-4.1-9.7-7.2-19.8-9.1-30-1.9-10.1-2.4-20.1-1.4-29.7.9-9.5,3.5-18.4,7.8-26.5,4.2-8,10.5-14.9,18.7-20.4,7-4.7,13.7-7.5,20.2-8.2.8,0,1.6-.1,2.3-.1,4.8,0,8.4,1.9,11,5.8,2.8,4.1,4.1,7.9,3.9,11.1-.1,2.2-.4,4.3-.7,6.2-5.8-3.2-11.7-5.3-17.5-6.1-7.1-1-14.5,1-22,6.1-6.7,4.5-11.1,10.4-13.3,17.6-2,6.9-2.5,14.5-1.5,22.5,1,7.9,3,15.8,5.9,23.7,2.9,7.8,6.1,15.1,9.6,21.7,3.6,6.8,6.8,12.2,9.6,16.3,12.4,18.2,25.1,30.6,37.9,36.7,13.2,6.3,26.4,5.1,38.9-3.4,6.8-4.6,11.4-10.9,13.8-18.7,2-6.4,2.2-13.7.7-21.5.6.3,1.2.7,1.8,1.2,1.8,1.4,3.4,3.1,4.7,5,2.2,3.2,2.9,7.6,1.9,12.8Z" fill="#df866f"/>
      <g>
        <path d="M830.8,530.3c-3.3-3.9-7.2-9.5-11.4-16.9-2.5-4.3-4.9-8.9-7.3-13.7-2.4-4.9-4.6-9.7-6.6-14.3-2-4.8-3.7-8.9-5-12.8-1.3-3.8-2.2-6.9-2.6-9.2l-.2-1.4-1.3-.4c-3.8-1.3-7.4-1-10.5.8-2.4,1.4-3.9,3.2-4.5,5.6-.3,1.2-.4,2.6-.2,4.2-7.2-1.7-14.1-.7-20.7,3.1-5.5,3.2-9.9,7.7-12.9,13.5-2.9,5.6-4.6,12.2-5.1,19.5-.4,7.2.4,15,2.5,23.1,2.1,8,5.4,16.2,10,24.2,5.8,10.1,12.2,17.2,19.1,21.1,3.8,2.2,7.6,3.3,11.2,3.3s6.4-.9,9.4-2.6l.3-.2h0c3.6-2.2,6.3-6.4,8.1-12.7,1.7-6,2.7-13.5,2.7-22.2,0-4.2-.2-8.5-.6-13,.4.9.9,1.6,1.3,2.3,5.1,9,9.9,15.1,14.6,18.8,5.2,4,10.2,4.8,14.5,2.4,3.9-2.2,6.3-6,7-11.2l.2-1.6-1.4-.8c-3.9-2.2-7.5-5.2-10.7-8.9ZM802.6,514l-5.9-12.1,2.5,13.5c1.7,9.5,2.1,18.5,2.1,26.9,0,8.3-.9,15.4-2.5,21-1.5,5.2-3.6,8.7-6.3,10.2h-.2c-2.3,1.4-4.5,2-6.9,2s-5.8-.9-8.9-2.7c-6.1-3.5-12-10-17.3-19.4-4.4-7.7-7.6-15.4-9.6-23.1-2-7.7-2.8-15-2.4-21.7.4-6.7,1.9-12.6,4.6-17.7,2.6-5,6.3-8.9,11.1-11.6,3.8-2.2,7.7-3.3,11.7-3.3s5.9.6,8.9,1.7l4.2,1.5-1.2-4.3c-.9-3.2-.8-4.9-.6-5.8.3-1.1,1-1.9,2.3-2.7,1.7-1,3.5-1.2,5.5-.8.5,2.3,1.3,5.1,2.5,8.5,1.4,3.9,3,8.2,5.1,13.1,2,4.6,4.2,9.5,6.7,14.5,2.4,4.9,4.9,9.6,7.4,14,4.4,7.6,8.4,13.5,11.9,17.6,3.2,3.7,6.7,6.7,10.5,9.1-.7,3-2.2,5.1-4.5,6.4-.9.5-1.9.8-2.9.8-1.9,0-4.1-.9-6.4-2.8-4.2-3.3-8.7-9.1-13.5-17.5-.7-1.2-1.5-2.7-2.4-4.5l-5.6-10.8Z" fill="#df866f"/>
        <path d="M791.9,556.3c.6-1.1,1-2.5,1.4-4.1.9-3.5,1.4-7.9,1.5-13,.2-5.1,0-10.5-.6-16.2-.6-5.6-1.5-11.3-2.7-16.8-1.2-5.5-2.8-10.6-4.8-15l-.4-1h-1.1c-7.5-1.1-13.7-.2-18.4,2.5-4.5,2.6-7.5,6.7-8.9,12.3-1.4,5.3-1.2,11.6.4,18.6,1.6,6.9,4.6,14.3,9,22,3.4,5.9,6.9,10.2,10.5,12.8,1,.7,1.9,1.3,2.9,1.7l-.3.2h.6c1.3.5,2.6.8,3.8.8h0c1.4,0,2.8-.4,4-1.1l3.2-3.7ZM790.9,539.1c-.2,4.8-.6,8.9-1.4,12.2-.9,3.5-2,4.8-2.8,5.3h-.2c-.6.4-1.2.6-1.8.6-1.3,0-2.9-.6-4.7-1.9-3.1-2.3-6.3-6.2-9.4-11.6-4.2-7.3-7.1-14.3-8.5-20.9-1.5-6.4-1.6-12.1-.4-16.8,1.1-4.5,3.5-7.8,7-9.8,2.9-1.7,6.5-2.5,10.8-2.5s2.7,0,4.1.2c1.6,3.9,3,8.4,4.1,13.2,1.2,5.4,2.1,10.9,2.6,16.4.6,5.4.8,10.7.6,15.6Z" fill="#df866f"/>
      </g>
      <path d="M887.3,522c-2.3-.8-3.8-1.3-5.2-2.9-2.1-2.5-4-5.3-5.7-8.4-2.7-4.9-5.5-10.7-8.5-17.3-2.9-6.4-6-13.5-9.2-21.1-3.3-8-6.1-15-8.6-21.4-2.4-6.1-4.4-11.5-6.2-16.2,4.7-2.8,8.2-5.3,10.6-7.4,3.1-2.7,4.8-5.8,5.1-9.1.3-3.1-.5-6.8-2.4-11.4l-2.1-5.1-2.5,5c-1.2,2.3-3,4.4-5.5,6.3-2.3,1.7-5.3,3.6-8.9,5.7-2.5-7.4-4-13.6-4.5-18.6-.6-5.4-.3-9.7,1-12.7,1.2-2.9,3.1-5.1,5.8-6.5,3.1-1.7,6-2.3,8.6-1.6,2.7.7,5.6,2.7,8.6,6l2.5,2.8,1.7-3.4c2.8-5.5,2.8-10.8,0-15.8-2.6-4.8-6.9-7.4-12.2-7.4s-9.1,1.5-15,4.7c-4.8,2.6-8.6,6.4-11.3,11.1-2.6,4.6-4.3,9.9-5.1,15.7-.8,5.7-.8,11.8,0,18.1.6,5.6,1.7,11.2,3.3,16.7-4.4,2.6-7.3,4.9-9,7.2-2.1,2.9-2.7,5.9-2,9,.6,2.5,1.7,5.3,3.5,8.5l2.2,4,2.3-3.9c1.1-1.9,2.7-3.7,4.7-5.3,1.4-1.1,2.7-2.1,4.1-3,1.7,4.6,3.6,9.5,5.7,14.8,2.4,6.3,5,12.9,7.6,19.5,2.6,6.6,5.2,13.1,7.7,19,2.8,6.7,5,12,7.1,16.5,1.6,3.5,2.9,5.7,4.1,7.7.5.9,1,1.7,1.5,2.5,3.7,6.8,7.3,10.9,10.9,12.6,1.8.8,3.6,1.2,5.3,1.2s4-.5,5.9-1.6l.3-.2h0c1.2-.8,2.5-1.9,3.9-3.5,1.6-1.8,2.7-4.3,3.2-7.3l.4-2.1-2.1-.7c-.6-.2-1.2-.4-1.8-.6ZM883.6,529.5c-1.3,1.5-2.3,2.2-2.8,2.5h-.2c-2.2,1.2-4.2,1.3-6.5.2-1.8-.8-4.7-3.2-8.5-10.3-.5-.9-1-1.8-1.6-2.7-1.2-2-2.4-4-3.8-7.2-2-4.5-4.2-9.7-7-16.4-2.5-6-5-12.4-7.7-19-2.6-6.6-5.2-13.2-7.6-19.4-2.5-6.4-4.7-12.3-6.8-17.6l-1.1-2.8-2.6,1.5c-2.4,1.4-4.9,3.1-7.3,5.1-1.2,1-2.3,2-3.3,3.1-.5-1.3-.9-2.5-1.2-3.5-.4-1.6,0-3.2,1.2-4.8.9-1.3,3.3-3.6,9-6.7l1.8-1-.6-2c-1.8-5.8-3.1-11.8-3.7-17.7-.7-5.9-.6-11.6,0-16.9.7-5.2,2.2-9.9,4.5-13.9,2.2-3.9,5.3-7,9.3-9.1,5-2.7,9.2-4.1,12.5-4.1s5.9,1.5,7.7,4.7c1.3,2.4,1.7,5,1.1,7.6-2.7-2.4-5.4-3.9-8.2-4.6-3.9-1-8-.3-12.3,2.1-3.7,2-6.4,5.1-8,9.1-1.6,3.9-2.1,8.9-1.4,15.3.7,6,2.6,13.7,5.8,22.6l1,2.8,2.6-1.4c5.1-2.8,9.2-5.3,12.2-7.5,1.5-1.1,2.8-2.3,4-3.6.4,1.7.6,3.1.5,4.4-.2,2-1.3,3.8-3.4,5.7-2.5,2.2-6.4,4.8-11.7,7.9l-1.9,1.1.8,2c1.9,5.1,4.3,11.2,7,18.2,2.5,6.5,5.4,13.6,8.6,21.5,3.2,7.6,6.3,14.8,9.2,21.3,3.1,6.7,6,12.6,8.7,17.6,1.8,3.4,3.9,6.5,6.2,9.2,2.1,2.5,4.5,3.5,6.9,4.3-.4,1.1-.9,2.1-1.5,2.8Z" fill="#df866f"/>
      <g>
        <path d="M901.9,449.7l.5-.2h0c6.6-2.7,11.7-6.2,15.2-10.3,3.7-4.3,6-8.9,6.9-13.7.9-4.8.6-9.2-.9-13.1-1.6-4-4.2-7-7.9-8.9-3.7-1.9-8.3-1.9-13.3.1-4.5,1.8-7.9,4.6-9.9,8.5-2,3.6-3.1,7.8-3.4,12.4-.3,4.4,0,8.9.7,13.4.7,4.4,1.6,8.5,2.6,12.1l.7,2.4,2.4-.6c2.3-.6,4.4-1.3,6.4-2.1ZM894.2,424.8c.2-3.8,1.2-7.3,2.8-10.2,1.5-2.8,3.9-4.8,7.3-6.2,2-.8,3.8-1.2,5.4-1.2s2.6.3,3.7.8c2.5,1.3,4.3,3.3,5.4,6.2,1.2,2.9,1.4,6.4.7,10.3-.7,3.9-2.7,7.7-5.8,11.3-3.1,3.7-7.7,6.7-13.7,9.1l-.4.2c-.9.4-1.9.7-2.9,1-.7-2.8-1.3-5.8-1.8-9.1-.7-4.1-.9-8.3-.6-12.3Z" fill="#df866f"/>
        <path d="M953.3,463.7c-.6-1.5-1.5-3-2.8-4.4-1.3-1.4-2.9-2.5-4.7-3.2l-3.3-1.3-.2,3.5c-.3,4.9-1.5,8.9-3.7,12-2.2,3-5.3,5.4-9.2,6.9-5.7,2.2-10.7,1.8-15.6-1.4-4.6-3-8.7-8.5-12.3-16.4,1.6-.5,3.2-1.1,4.7-1.7,6.9-2.7,12.7-6.4,17.2-10.9,4.5-4.4,8-9.4,10.4-14.6,2.4-5.2,3.7-10.5,4-15.6.3-5.2-.4-10-2.1-14.2-2.2-5.5-6-9.6-11.3-12.1-5.4-2.5-12-2.2-19.7.8-5.7,2.3-10.5,5.6-14.4,9.9-3.7,4.2-6.7,9.2-8.8,14.6-2.1,5.4-3.4,11.2-3.9,17.2-.5,6-.3,12,.5,17.8.8,5.9,2.3,11.5,4.4,16.9,2.7,6.9,6.5,12.9,11.2,17.8,4.8,5,10.5,8.3,17,9.8,2.1.5,4.3.7,6.5.7,4.6,0,9.5-1,14.7-3h0s.5-.2.5-.2c2.7-1.1,5.5-2.6,8.4-4.4,2.9-1.9,5.5-4.1,7.7-6.5,2.3-2.5,4-5.3,5-8.3,1.1-3.2,1-6.5-.3-9.8ZM948.8,471.9c-.8,2.3-2.1,4.5-3.9,6.5-1.9,2.1-4.2,4-6.7,5.7-2.4,1.5-4.7,2.8-6.9,3.8l-.5.2c-6.9,2.8-13.3,3.5-18.8,2.3-5.5-1.3-10.4-4.1-14.4-8.3-4.2-4.4-7.6-9.9-10.1-16.2-2-4.9-3.3-10.2-4.1-15.7-.8-5.5-.9-11.1-.5-16.7.4-5.5,1.6-10.8,3.5-15.8,1.9-4.9,4.5-9.3,7.9-13.1,3.3-3.7,7.4-6.6,12.4-8.5,3.6-1.4,6.9-2.2,9.8-2.2s4.1.4,5.9,1.2c4.2,1.9,7,5,8.7,9.3,1.4,3.5,2,7.5,1.7,12-.3,4.5-1.5,9.2-3.6,13.8-2.1,4.7-5.3,9.1-9.3,13.1-4.1,4-9.3,7.3-15.5,9.8-2.3.9-4.7,1.7-7,2.3l-2.8.8,1.1,2.7c4.3,10.2,9.4,17.4,15.4,21.3,6.2,4.1,13.1,4.8,20.3,1.9,4.9-1.9,8.7-4.9,11.5-8.7,2.1-2.9,3.4-6.3,4.2-10.4.8.9,1.3,1.7,1.7,2.6.9,2.2.9,4.2.2,6.3Z" fill="#df866f"/>
      </g>
    </g>
    <path d="M183,646.3h0c-11.8,0-22.3-3.8-34-12.2-12.8-9.3-23.9-22.6-33.7-34.3-9.9-11.8-19.2-23-25.6-23.8-.6,0-1.2-.1-1.7-.1-3.4,0-4.2,1.4-5.8,4.3-2,3.5-4.6,8.3-13.5,8.3s-1.8,0-2.8-.1c-6.7-.6-11.2-3.2-13.3-7.6-3.3-6.7,0-15.5,2.6-19.6,8.2-13.3,21.3-20.6,37-20.6s38.3,10.3,49.7,25.5c1.9,2.5,3.7,5,5.3,7.3,11,15.2,17.1,23.6,32.9,23.6,5.5,0,12.2-1,20.3-3.1,25.6-6.6,25.4-30.1,25.2-50.8v-.6c-.4-39.2,13.8-71.1,39.9-116.2,23.1-39.7,56.6-66.8,108.8-87.7,13.8-5.5,29.3-9.8,44.2-13.8,30.1-8.2,61.2-16.7,83.6-36.7,17.9-16,28.2-30.8,38-48h0c2.4-3.9,4.8-8.1,7.5-12.6,11.8-20.2,20.1-33.5,28.5-33.5s.5,0,.7,0c7.4.7,13.7,12.1,21,29.1v.2c.9,1.9,3.5,4.4,4.9,4.7,18.1,3.9,27.3,7.5,44.8,27.1,11.5,12.9,19.3,30,22.5,49.6.3,1.9,1.7,3.3,3.6,3.6l1.1.2c11.2,1.6,28.9,6.4,30.3,20.1,1.5,14.3-17,23-37.1,30.3-5.2,1.9-13.4,4.6-20.6,7.1-4.2,1.4-8.3,2.8-11.4,3.8-5.2,1.8-9.8,3.2-14.3,4.6-23.4,7.3-36.2,11.3-54.7,42.1-10.8,18.1-17,31.1-23,43.7-8.7,18.4-17,35.8-38.3,64.4-17.1,22.8-41.1,43.3-69.5,59.3-26.5,14.9-56.1,25.3-83.3,29.3-15.4,2.2-27.7,3.1-39.5,4-22.4,1.6-41.7,3-71.5,13.6l-1.1.4c-25.7,9.2-42.7,15.2-57.9,15.2ZM88.1,569.7c.8,0,1.6,0,2.4.1,8.9,1,18,12,29.6,25.9,9.6,11.5,20.4,24.5,32.5,33.3,10.7,7.8,19.8,11.1,30.4,11.1s30.7-5.9,55.8-14.8l1.1-.4c30.6-10.9,50.3-12.3,73.1-13.9,11.8-.9,23.9-1.7,39.1-3.9,56.6-8.3,116.4-42.9,148.8-86.2,21-28.1,28.7-44.4,37.7-63.3,6-12.8,12.3-25.9,23.3-44.3,19.6-32.7,34.1-37.3,58.1-44.8,4.4-1.4,9-2.8,14.1-4.6,3.2-1.1,7.2-2.4,11.5-3.9,7.2-2.4,15.3-5.1,20.5-7,17-6.2,34.2-13.8,33.1-24-1.1-10.3-18.6-13.8-26.1-14.8h-1c0-.1,0-.2,0-.2-4-1-7.1-4.3-7.7-8.5-3-18.4-10.3-34.5-21-46.5-16.5-18.4-24.1-21.4-41.6-25.2-3.7-.8-7.7-4.9-9.2-8.3v-.2c-8.9-20.6-13.6-25.2-16-25.4,0,0,0,0-.1,0-5.5,0-16.2,18.3-23.2,30.4-2.6,4.5-5.1,8.8-7.5,12.6-12,21-23.3,35.3-39.2,49.5-23.5,20.9-55.3,29.6-86.1,38-15.5,4.2-30.1,8.2-43.6,13.6-50.8,20.4-83.5,46.6-105.8,85.1-25.6,44.1-39.5,75.2-39.1,113v.6c.2,20.7.5,49-29.8,56.8-8.7,2.2-15.8,3.3-21.9,3.3-19,0-26.5-10.4-37.9-26.1-1.6-2.3-3.4-4.7-5.3-7.2-10.3-13.8-28.3-23.1-44.8-23.1s-22.8,3.1-31.8,17.7c-2,3.2-4.3,9.7-2.3,13.7,1.2,2.4,4,3.8,8.5,4.3.8,0,1.5.1,2.2.1,5.2,0,6.4-2.1,8.1-5.2,1.7-3.1,4.1-7.4,11.2-7.4Z" fill="#df866f"/>
  </g>
</svg>